<svg width="100" height="100" version="1.1" xmlns="http://www.w3.org/2000/svg">
    <path fill="#212121" d="M50 0c-2.521 0-4.893 1.175-6.225 2.166-1.331.991-2.108 1.839-2.976 2.707s-1.716 1.645-2.707 2.977c-.424.569-.874 1.332-1.256 2.212-9.134 3.527-16.26 10.664-18.857 19.813-10.06 1.21-17.98 9.759-17.98 20.124C0 60.24 7.709 68.802 17.595 70.173L23.559 100h52.883l5.965-29.826C92.293 68.803 100 60.241 100 50c0-10.366-7.92-18.915-17.98-20.125-2.597-9.149-9.723-16.286-18.856-19.812a11.353 11.353 0 00-1.256-2.212c-.991-1.332-1.839-2.109-2.707-2.977s-1.645-1.716-2.977-2.707C54.893 1.176 52.522 0 50 0zm0 3.705c1.576 0 3.04.707 4.014 1.432.974.724 1.7 1.487 2.568 2.355.869.869 1.63 1.595 2.356 2.569a7.54 7.54 0 011.261 2.697c9.88 3.18 17.533 10.92 19.111 20.576h.319c9.16 0 16.666 7.505 16.666 16.666 0 9.16-7.506 16.666-16.666 16.666h-.297l-5.926 29.629H26.594l-5.926-29.63h-.297c-9.16 0-16.666-7.505-16.666-16.665s7.506-16.666 16.666-16.666h.319c1.578-9.656 9.23-17.396 19.11-20.576a7.54 7.54 0 011.262-2.697c.725-.974 1.487-1.7 2.356-2.569.868-.868 1.594-1.63 2.568-2.355.974-.725 2.438-1.432 4.014-1.432z" />
    <path fill="#eb0000" d="m46.038 10.111c-1.737 1.737-2.703 2.703-2.703 3.964s0.966 2.227 2.703 3.964 2.703 2.702 3.964 2.702 2.227-0.965 3.964-2.702 2.702-2.703 2.702-3.964-0.965-2.227-2.702-3.964-2.703-2.703-3.964-2.703c-1.262 0-2.227 0.966-3.964 2.703z" />
    <path fill="#212121" d="M40.15 16.484c-9.432 3.323-16.076 11.27-16.076 20.553h-3.703c-7.16 0-12.963 5.806-12.963 12.965s5.804 12.963 12.963 12.963h59.258c7.159 0 12.963-5.804 12.963-12.963s-5.804-12.965-12.963-12.965h-3.703c0-9.283-6.645-17.23-16.076-20.553a7.766 7.766 0 01-.91 1.604c-.725.973-1.49 1.701-2.358 2.57-.868.868-1.592 1.63-2.566 2.355-.974.725-2.44 1.432-4.016 1.432s-3.041-.707-4.015-1.432c-.974-.724-1.698-1.487-2.567-2.355-.868-.869-1.632-1.597-2.357-2.57a7.767 7.767 0 01-.91-1.604z" />
    <path fill="#212121" d="m24.445 66.668 5.185 25.926h11.753l-2.194-25.926zm18.674 0 1.397 25.926h10.969l1.396-25.926zm17.691 0-2.193 25.926h11.753l5.184-25.926z" />
</svg>
